<?xml version="1.0" encoding="utf-8"?>
<!-- Generator: Adobe Illustrator 20.0.0, SVG Export Plug-In . SVG Version: 6.00 Build 0)  -->
<svg version="1.1" id="Capa_1" xmlns="http://www.w3.org/2000/svg" xmlns:xlink="http://www.w3.org/1999/xlink" x="0px" y="0px"
	 viewBox="0 0 546.055 537.054" enable-background="new 0 0 546.055 537.054" xml:space="preserve">
<g>
	<polygon points="128.785,364.801 128.785,364.801 128.785,364.801 	"/>
	<path d="M463.512,425.236c0,0.001,0,0.002,0,0.002C463.512,425.215,463.512,425.212,463.512,425.236z"/>
	<path d="M463.512,425.239c0.002,0.159,0.016,1.358,0.038,3.242c0.015,0.159,0.023,0.318,0.039,0.476
		C463.578,427.728,463.528,426.494,463.512,425.239z"/>
	<path d="M463.985,323.253l-0.114-1.531c-0.013-1.099-0.025-2.102-0.035-2.954c-0.708-7.41-0.213-14.927-0.343-22.392l-0.022-1.358
		c-0.042-0.42-0.085-0.841-0.127-1.262c0.001-0.548,0.001-1.095,0.002-1.643c-0.301-4.099-0.274-8.385,0.004-12.911
		c-0.391-1.116-0.822-2.154-1.268-3.159c-2.526-1.642-4.992-3.239-7.79-2.595c-1.924,0.443-3.406,2.949-5.313,3.253
		c-0.527,0.084-0.452,1.662-0.447,2.794c0.045,11.808,0.047,23.616,0.058,35.424c0,0.321-0.025,0.643-0.039,0.964
		c0.132,2.693,0.197,4.354,0.014,5.378H431.54c0.024-0.68-0.088-1.348-0.276-2.006c-0.3-1.05-0.821-2.055-0.99-3.121
		c-0.416-2.624-0.883-5.233-1.579-7.797c-0.289-1.062-0.136-2.183-0.51-3.23c-0.146-0.409,0.208-0.617,0.456-0.872
		c0.845-0.869,1.52-1.783,1.615-3.104c0.435-6.09,0.621-12.197,0.691-18.292c0.059-5.176,0.233-10.35,0.408-15.517
		c0.134-3.943,0.153-7.838-0.723-11.677c-1.08-4.734-0.177-9.363,0.69-13.956c0.494-2.617,1.251-5.206,1.869-7.814
		c0.944-3.981,0.967-5.969,1.839-11.645l0.743-18.994c0,0,0.452-5.151,0-6.499c-0.65-1.94-0.607-3.267-0.997-5.285
		c-0.342-1.77-0.861-3.493-1.448-5.195c-0.239-0.693-0.148-1.212,0.348-1.829c1.011-1.259,1.357-2.831,0.695-4.285
		c-0.909-1.997-1.543-4.03-1.59-6.202c-0.069-3.235-0.018-6.473-0.018-8.533c0.23,2.011,0.533,5.17,0.972,8.31
		c0.233,1.668,0.878,3.261,0.975,4.971c0.102,1.808,0.35,3.593-0.095,5.41c-0.459,1.873,0.288,2.922,2.206,3.161
		c0.788,0.098,1.089,0.443,1.27,1.134c1.016,3.867,1.578,7.741,0.488,11.701c-0.309,1.124-0.902,1.158-1.913,3.14
		c-1.011,1.982-0.392,10.049-0.392,10.049c0.154,0.791,0.378,2.924,0.473,3.336c0.085,0.371,0.172,0.807,0.657,0.853
		c0.491,0.046,0.787-0.301,0.97-0.691c0.456-0.973,0.299-1.997,0.169-3.011c-0.117-0.919-0.289-3.569,0.046-4.667
		c0.65,0.712,1.345,3.133,1.393,4.178c0.074,1.617,0.199,3.25-1.028,4.377c-0.64,0.589-2.348,0.275-2.699,0.602
		c-0.351,0.327-0.683,2.217,0.516,2.432c1.598,0.286,3.112-0.248,4.637-0.977c1.651-0.79,3.087-2.02,3.666-3.546
		c0.701-1.846,1.247-3.883,0.922-5.905c-0.56-3.481-1.428-6.924-0.598-10.481c0.07-0.3-0.413-7.782-0.358-11.206
		c0.008-0.498,0.195-0.971,0.245-1.438c0.101-0.96,0.968-1.405,1.247-2.269c0.58-1.789,0.544-3.603,0.609-5.426
		c0.012-0.332-0.086-0.594-0.427-0.61c-0.808-0.037-0.759-0.518-0.66-1.099c0.089-0.519,0.169-1.054,0.143-1.577
		c-0.259-5.158-1.243-10.219-2.227-15.267c-0.926-4.755-1.417-9.558-1.912-14.361c-0.438-4.254-1.08-8.467-1.941-12.65
		c-0.376-1.829-1.466-3.194-3.043-4.154c-0.945-0.575-10.46-0.527-15.66-4.283c-4.775-3.449-5.606-15.909-5.941-20.29
		c-0.19-2.483-0.258-4.978-0.299-7.469c-0.182-11.221-0.647-22.402-2.818-33.471c-0.635-3.237-2.142-5.895-4.104-8.251
		c-3.504-4.21-7.999-7.205-13.105-9.24c-5.986-2.386-12.186-3.363-18.604-2.668c-6.046,0.655-11.138,3.027-14.566,8.325
		c-4.216,6.514-3.799,14.704,1.379,20.461c7.899,8.782,18.149,12.325,29.674,12.767c1.89,0.072,3.702-0.454,5.456-1.154
		c2.11-0.842,3.222,0.026,3.423,2.143c0.784,8.265,1.696,16.523,2.25,24.805c0.127,1.897,0.221,3.794,0.323,5.692
		c-0.233,1.145,0.422,4.593-1.106,8.747c-0.762,2.071-8.754,5.438-14.413,7.295c-4.281,1.405-8.05,23.058-8.304,24.293
		c-0.378,1.841-0.146,3.918-1.546,5.599c-1.033,1.24-1.913,2.588-2.772,3.954c-0.005,0.003-0.015,0.009-0.015,0.009l-0.078,0.136
		c-1.035,1.649-2.042,3.323-3.223,4.89c-2.615,3.468-4.545,7.455-6.211,11.485c-1.723,4.168-4.369,7.679-7.072,11.203
		c-1.501,1.956-4.474,3.923-6.568,4.71c-2.094,0.787-7.899,5.287-8.799,6.674c-0.104,0.161-0.23,0.392-0.367,0.667
		c-1.268,0.359-2.519,0.849-3.747,1.489c-7.004,3.653-11.498,9.292-12.48,17.381c-0.306,2.523-0.243,5.015,0.367,7.47
		c0.437,1.757,0.197,3.468-0.3,5.115c-0.637,2.112-0.153,3.777,1.196,5.489c1.581,2.006,1.79,1.683-0.524,3.395
		c-2.732,2.021-5.544,3.931-8.295,5.926c-0.744,0.539-1.457,0.56-2.274,0.266c-0.97-0.348-6.512-2.733-11.574-1.974
		c-5.061,0.759-5.39,0.612-5.39,0.612l-2.833-0.443c0,0-0.459,0.163-0.978,0.469c-0.005-0.01-0.009-0.021-0.014-0.032
		c0.001,0.013,0.002,0.025,0.004,0.038c-0.771,0.456-1.667,1.228-1.391,2.267c-0.039,1.837,0.606,3.546,0.981,5.303
		c0.392,0.611,0.783,1.221,1.175,1.832c1.106,0.691,2.057,0.165,2.931-0.454c1.983-1.403,3.765-3.049,5.489-4.757
		c0.455-0.451,0.886-0.944,1.646-0.757c1.918,0.471,3.824,0.985,5.748,1.437c2.299,0.54,4.523,1.408,6.773,2.154
		c5.77,1.912,11.537,3.835,17.305,5.753c2.989,0.994,6.019,1.892,8.641,3.735c0.297,0.209,0.626,0.385,0.805,0.714
		c0.536,0.986,1.448,1.466,2.461,1.728c2.25,0.583,4.421,0.055,6.562-0.614c1.901-0.594,3.588-1.641,5.356-2.528
		c3.161-1.586,6.075-3.534,8.813-5.736c1.979-1.592,3.624-3.551,5.219-5.519c0.939-1.159,1.894-2.357,2.262-3.871
		c0.206-0.845,0.442-1.716-0.069-2.515c-1.037-1.621-2.051-3.263-3.207-4.797c-1.005-1.334-1.603-2.756-1.84-4.406
		c-0.424-2.953-0.208-5.898-0.092-8.851c0.109-2.8-0.103-5.572-0.946-8.267c-0.474-1.513-5.632-10.623-6.493-11.465
		c-2.464-2.407-5.35-4.098-8.59-5.135c0.486-0.167,1.006-0.297,1.573-0.374l0.001,0l0,0c3.811-0.52,8.463-6.639,8.733-6.858
		c1.434-1.165,2.899-2.311,4.197-3.619c1.813-1.827,4.093-3.214,5.482-5.421c1.085-1.723,2.457-3.201,4.037-4.334
		c2.103-1.508,4.863-11.52,6.267-13.528c0.907-1.297,2.658-5.646,4.462-10.481c0.287,2.421,0.619,5.623,0.513,8.656
		c-0.073,2.098-0.828,10.655-0.884,11.318c-0.19,2.249-0.967,2.875-1.061,5.129c-0.245,5.846,2.544,6.792,2.476,7.428l0.039,15.129
		c0,0,0.719,15.861,0.754,15.951c0.063,0.162,0.106,0.335,0.13,0.508c0.568,3.941,1.476,7.827,1.678,11.829
		c0.151,2.995,0.882,5.928,1.31,8.895c0.789,5.456,0.559,10.982,1.06,16.464c0.414,4.533,0.744,9.065,1.597,13.546
		c1.499,7.874,3.563,15.615,5.409,23.408c0.25,1.054,0.669,1.845,1.701,2.379c1.254,0.65,1.42,2.109,0.402,2.999
		c-0.78,0.682-1.004,1.39-0.553,2.326c0.136,0.283,0.213,0.599,0.29,0.906c0.228,0.916-0.067,1.827-0.211,2.704
		c-0.032,0.195-2.027,6.287-2.319,8.222c-0.041,0.274-0.031,0.571,0.009,0.872h-3.833c0-1.676-0.001-3.352-0.001-5.028
		c-2.143,0.921-4.621,0.75-6.455-1.411c-0.544-0.64-1.028-1.288-1.464-1.943c0.009,0.659,0.016,1.319,0.026,1.979
		c0.014,1.002,0.002,1.914-1.456,1.607c-0.691-0.145-0.989,0.219-0.973,0.936c0.015,0.644,0.066,1.277,0.077,1.908
		c-0.777-3.879-0.249-7.816-0.382-11.726l-0.022-0.696c-0.042-0.216-0.085-0.431-0.127-0.647c0.001-0.281,0.001-0.562,0.002-0.843
		c-0.302-2.102-0.274-4.3,0.004-6.62c-0.391-0.573-0.822-1.105-1.268-1.62c-2.525-0.842-4.992-1.661-7.79-1.33
		c-1.924,0.227-3.406,1.512-5.313,1.668c-0.527,0.043-0.452,0.852-0.448,1.433c0.045,6.055,0.047,12.11,0.058,18.164
		c0,0.165-0.026,0.33-0.039,0.494c0.274,2.858,0.27,3.464-1.659,3.553c-0.445,0.021-0.993,0.014-1.663,0.001
		c-1.399-0.027-2.786-0.206-4.196-0.203c-1.626,0.004-1.33-1.359-1.308-2.426c-0.364-0.098-0.763-0.122-0.921-0.572
		c-0.319-0.909-0.857-1.219-1.699-0.566c-0.61,0.474-0.987,0.128-1.055-0.429c-0.093-0.763-0.55-0.853-1.134-0.873
		c-0.343,0.196-0.302,0.502-0.283,0.807c0.002,0.028,0.003,0.055,0.004,0.083c0.002,0.055,0.002,0.11-0.002,0.164
		c-0.004,0.054-0.013,0.106-0.028,0.158c-0.768-0.346-1.275-0.841-2.371-0.624c-0.915,0.181-1.747,0.165-2.642,0.719
		c-0.68,0.421-1.314-0.244-1.332-1.124c-0.012-0.594,0.146-1.139,0.613-1.542c-0.232-0.086-0.429-0.214-0.503-0.483
		c-0.092-0.922,0.263-1.965-0.715-2.648c-0.593,1.036-0.427,2.112-0.268,3.19c0.023,0.154,0.046,0.308,0.066,0.462
		c0.093,0.712,0.263,1.518-0.459,1.962c-0.713,0.438-1.405,0.431-2.257-0.097c-0.668-0.415-1.579-0.903-2.349-0.878
		c-1.386,0.045-1.323-0.655-1.318-1.619c0.021-4.913-0.001-9.826-0.012-14.739c-0.001-0.496,0.015-0.999-0.055-1.487
		c-0.008-0.051-0.014-0.104-0.02-0.159c-0.088,0.558-0.53,0.779-0.995,0.782c-0.301,0.002-0.501-0.387-0.458-0.764
		c0.056-0.485,0.284-0.846,0.811-0.83c0.534,0.017,0.595,0.436,0.641,0.812c0.004-0.027,0.012-0.051,0.014-0.079
		c0.015-0.165,0.052-0.327,0.079-0.49c-0.211-0.453-0.633-0.374-1.006-0.382c-0.731-0.015-0.905-0.303-0.763-1.047
		c0.242-1.265-0.419-1.632-1.67-1.815c-3.521-0.513-6.977,0.247-10.464,0.271l0,0c-0.024,0.214-0.049,0.428-0.074,0.642
		c0.076,0.555,0.139,1.099-0.202,1.419c-0.155,0.145-0.394,0.244-0.753,0.277c-0.585,0.053-0.632,0.464-0.651,0.949
		c-0.088,2.184-0.204,4.343,0.084,6.551c0.184,1.411-0.204,2.947-0.285,4.433c-0.017,0.318,0.021,0.947-0.68,0.935
		c-0.61-0.01-1.209,0.064-1.629-0.542c-0.511-0.735-0.541-1.56-0.439-2.38c0.273-2.192,0.192-4.393,0.224-6.591
		c0.002-0.11-0.002-0.22,0.004-0.33c0.073-1.311-1.911-0.832-1.896-2.471c0.018-2.055-1.6-0.748-2.564-0.708
		c-0.705,0.029-1.444,0.151-1.92-0.583c-2.247,0.384-4.5,0.628-6.782,0.333c-0.341-0.044-0.658,0.032-0.795,0.414
		c-0.039,0.872,0.506,1.98-1.155,2.072c-0.652,0.036-0.354,0.896-0.398,1.406v0.001l0,0c0.239,1.562,0.411,3.124,0.371,4.687v0
		c-0.008,0.313-0.025,0.625-0.051,0.938c-0.052,0.626-0.143,1.251-0.282,1.878c-0.48,0.564-1.363,0.621-1.524,1.672
		c-0.123,0.81-1.205,0.674-1.836,0.476c-0.755-0.237-1.491-0.218-2.243-0.25c0.492,0.732,0.667,1.535,0.342,2.36
		c-0.87,2.212-51.145-0.693-50.553-3.897c0.611-3.308,0.766-10.4,1.327-13.69c0.638-3.744,1.694-6.845,1.99-10.652
		c0.137-1.762-3.639-7.93-2.686-9.381c0.346-0.527,0.18-0.341,0.001-0.105c0.009-1.268,0.019-2.536,0.028-3.803
		c-0.201-1.615-0.263-3.235-0.267-4.855c-0.002-0.81,0.01-1.62,0.027-2.43c0.017-0.81,0.038-1.619,0.054-2.426
		c0.115-5.985-0.313-11.97,0.044-17.952c0.073-1.527-0.609-2.181-2.146-1.876c-0.211,0.042-0.46,0.047-0.658-0.024
		c-0.744-0.269-2.081,0.486-2.18-0.358c-0.133-1.134,1.41-0.043,1.928-0.79c-0.754-0.361-1.523-0.016-2.267-0.1
		c-1.12-0.126-1.267,0.264-0.506,1.092c-1.867,0.282-3.638-0.188-5.421,0.152c-0.937,0.179-1.26,0.364-1.256,1.403
		c0.05,11.819,0.155,23.64-0.043,35.456c-0.053,3.176-1.113,6.331-1.656,9.506c-0.733,4.292-1.469,8.585-2.094,12.893
		c-0.372,2.564-1.418,4.786-2.91,6.846c-0.189,0.261-0.475,0.233-0.748,0.245c-0.376,0.017-0.48-0.236-0.461-0.528
		c0.116-1.835-0.863-1.757-2.269-1.534c-0.992,0.158-2.016-0.057-3.053,0.319c-0.593,0.215-0.721,0.814-1.399,0.991
		c-0.399-0.852-0.16-1.789-0.185-2.662c-0.256-8.717-0.312-17.443-0.727-26.152c-0.54-11.331-0.857-22.668-1.195-34.004
		c-0.038-1.27-0.65-2.081-1.323-2.923c-0.962-1.203-2.027-2.324-3.048-3.479c-0.11-0.124-0.201-0.315-0.338-0.357
		c-2.456-0.768-4.279-2.585-6.41-3.887c-0.367-0.224-0.697-0.168-1.044-0.217c0.363-0.099,0.6-0.408,0.308-0.642
		c-0.417-0.336-1.218-0.463-1.457,0.08c-1.093,2.491-3.248,4.342-3.167,7.565c0.327,12.968-0.54,25.929-0.63,38.899
		c-0.054,7.831-0.397,15.659-0.601,23.489c-0.027,1.053-0.103,1.828-1.461,0.964c-0.532-0.338-1.02,0.541-1.771,0.372
		c-1.178-0.266-0.693,0.777-0.76,1.311c-0.063,0.497-0.218,0.916-0.739,0.937c-1.287,0.05-1.713,1.09-2.184,1.957
		c-0.238,0.438-0.199,0.994-0.889,0.831c-0.725-0.171-0.435-0.8-0.439-1.236c-0.03-3.313-0.155-6.632,0.025-9.935
		c0.082-1.501-0.616-1.656-1.672-1.674c-0.813-0.013-1.708,0.232-1.804-1.028c-0.008-0.111-0.285-0.32-0.356-0.29
		c-1.663,0.7-3.128-0.786-4.797-0.406c-0.691,0.157-1.51-0.345-1.994,0.62c-0.415,0.826-0.924-1.033-1.346-0.02
		c-0.583,1.398-1.895-1.241-2.362,0.455c-0.453,1.644-1.685,0.583-2.531,0.681c-0.752,0.087-0.761,0.408-0.756,0.949
		c0.041,4.249,0.07,8.497,0.107,12.746c0.004,0.415,0.258,0.947-0.367,1.099c-0.412,0.1-0.782,0.05-1.147-0.38
		c-0.785-0.922-1.928-0.359-2.909-0.49c-0.761-0.102-1.736,0.225-1.645-1.167c0.032-0.484-0.56-0.653-0.993-0.648
		c-0.88,0.01-1.758,0.122-2.638,0.153c-0.633,0.022-0.94,0.32-0.838,0.93c0.156,0.932-0.441,0.85-1.069,1
		c-0.847,0.201-2.235-0.889-2.512,0.945c-0.018,0.121-0.771,0.245-0.87-0.322c-0.075-0.43-0.033-0.881-0.043-1.322
		c-0.08-4.826-0.235-9.652-0.256-14.479c0-0.009,0-0.018,0-0.028c-0.004-0.967-0.003-1.934,0.005-2.902
		c0.016-1.934,0.06-3.869,0.145-5.804c0.001-0.642,0.002-1.283,0.003-1.925v0v0c0.003-0.242,0.005-0.483,0.008-0.725
		c-0.006-0.423-0.012-0.845-0.018-1.268v0c-0.027-0.358-0.055-0.716-0.082-1.074c-0.008-0.187-0.016-0.374-0.025-0.561
		c-0.002-0.145-0.004-0.29-0.006-0.435c0.002-0.186,0.004-0.372,0.006-0.558c-0.021-1.449-0.044-2.899-0.026-4.347
		c0-0.01,0-0.019,0-0.029c0.009-0.718,0.029-1.436,0.063-2.153c0.035-0.725,0.085-1.449,0.156-2.173
		c0-0.638,0.001-1.276,0.001-1.914v0c-0.082-2.133-0.165-4.266-0.247-6.399c0.002-6.713,0.005-13.427,0.007-20.14
		c0.007-0.141,0.014-0.281,0.021-0.422c-0.003-0.395-0.005-0.789-0.009-1.184c-0.012-0.71-0.024-1.421-0.035-2.131
		c-1.477-0.682-3.024-0.437-4.557-0.335c-0.205,0.014-0.567,0.106-0.581,0.203c-0.291,1.948-1.781,1.144-2.814,1.181
		c-3.022,0.11-6.048,0.184-9.07,0.139c-1.471-0.022-1.656,0.627-1.651,1.893c0.039,10.588,0.013,21.176,0.006,31.764
		c0.004,0.573,0.008,1.145,0.012,1.718c0.024,6.292,0.01,12.585,0.107,18.877c0.018,1.198-0.404,1.419-1.413,1.286
		c-1.159-0.153-1.274,0.115-1.147,1.423c0.308,3.172,0.229,6.398,0.064,9.589c-0.038,0.743-1.233,0.864-1.962,0.434
		c-1.618-0.954-2.988-0.864-4.41,0.469c-0.464,0.435-1.65,1.407-1.987-0.375c-0.053-0.28-0.292-0.359-0.487-0.285
		c-1.125,0.431-2.081-0.211-3.107-0.351c-1.374-0.187-1.131-0.844-1.071-1.641c0.037-0.494,0.153-0.983,0.184-1.477
		c0.108-1.725-0.954-2.673-2.666-2.67c-1.277,0.003-2.475-0.849-3.823-0.509c-0.041,0.01-0.134-0.03-0.141-0.062
		c-0.412-1.735-0.863-3.463-1.184-5.215c-0.016-0.089,0.009-0.144,0.061-0.178c0.052-0.034,0.13-0.046,0.22-0.049
		c0.179-0.006,0.403,0.026,0.552-0.002c0.107-0.049,0.214-0.097,0.321-0.146c-0.025-0.517-0.05-1.033-0.075-1.55
		c-0.204-0.843-0.191-1.694-0.156-2.546c0.011-0.284,0.025-0.568,0.033-0.852c0.013-1.161,0.025-2.323,0.038-3.484
		c-0.035-4.395-0.067-8.79-0.105-13.185c-0.006-0.695-0.038-1.265-0.673-1.873c-0.79-0.757-1.034-1.915,0.205-2.672
		c0.636-0.388,0.464-0.937,0.473-1.446c0.042-2.361,0.05-4.723,0.071-7.085c-0.014-0.993-0.027-1.986-0.041-2.978
		c0.003-0.59,0.006-1.181,0.009-1.771c-0.003-0.846-0.006-1.692-0.01-2.538c-0.006-0.694-0.011-1.388-0.017-2.082
		c-0.001-0.307-0.002-0.615-0.003-0.922c0-0.577,0-1.155,0-1.732l-0.082-0.127l0.099-0.116c-0.117-0.442,0.123-1.091-0.429-1.281
		c-1.258-0.433-0.777-1.295-0.625-2.098c-0.001-0.203-0.002-0.405-0.003-0.607c0-0.008,0-0.016,0-0.024
		c-0.18-1.054-0.236-2.109-0.226-3.164c0.003-0.264,0.009-0.528,0.019-0.792c0.03-0.792,0.088-1.584,0.151-2.376
		c0.008-0.283,0.015-0.566,0.023-0.849c-0.273-0.953,0.504-2.453-1.347-2.583c-1.077-0.033-2.153-0.066-3.23-0.099
		c-0.355-0.025-0.71-0.051-1.065-0.076c-0.852-0.358-1.704-0.716-2.556-1.075c-1.31-0.492-2.62-0.983-4.328-1.624
		c1.136,1.419,2.856,1.014,3.821,2.414c-2.064,0.127-3.955,0.305-5.849,0.342c-1.558,0.031-3.139-0.461-4.654,0.282
		c0.005,2.64,0.02,5.281,0.013,7.921c-0.002,0.88-0.008,1.76-0.016,2.64c-0.005,0.493,0.427,1.296-0.587,1.425
		c-1.159,1.08-0.042,2.461-0.48,3.637c0.027,1.971,0.066,3.942,0.092,5.913c0.008,0.657,0.016,1.314,0.02,1.971
		c0.004,0.657,0.006,1.314,0.005,1.971c-0.001,0.657-0.006,1.314-0.016,1.971c-0.018,1.314-0.055,2.628-0.116,3.942
		c0.091,1.23-0.265,2.537,0.832,3.575c0.348,0.329,0.311,1.064,0.051,1.424c-1.268,1.758-0.705,3.734-0.721,5.61
		c-0.048,5.854,0.005,11.709,0.044,17.564c0.005,0.81,0.024,1.18-1.065,0.892c-2.314-0.613-3.901,1.154-3.247,3.436
		c0.661,2.305,0.474,2.893-1.637,3.64c-0.816,0.289-0.835,0.677-0.82,1.319c0.033,1.362-0.008,2.726,0.051,4.086
		c0.037,0.861-0.34,1.215-1.038,1.258v28.967h0.871v20.398c0.231,11.123,0.169,22.249,0.189,33.374
		c0.171-0.001,0.342-0.002,0.513-0.003v-46.506c0.13,0,0.259,0.001,0.388,0.001v9.441c0.084-0.002,0.168-0.003,0.253-0.005v-10.197
		c1.081,5.525,0.826,11.144,1.442,16.703c0.845-2.405,0.317-4.901,0.668-7.343v15.902c0.088,0,0.175,0.001,0.262,0.001v-16.15
		c0.275,0.608,0.034,1.282,0.584,1.835v-4.696c0.073,0,0.145,0,0.218,0.001v14.084c0.106,0.003,0.212,0.006,0.319,0.009
		c0.117-5.748,1.043-11.448,1.014-17.216v4.25c0.093-0.001,0.186-0.001,0.279-0.002v-5.506c0.228,1.506,0.396,3.009,0.408,4.513
		c0.038,4.672,0.012,9.344,0.021,14.016c0.001,0.626-0.12,1.302,0.756,1.975c-0.257-6.733,0.177-13.238,0.388-19.751v8.377
		l0.263,0.004v-5.325c0.623,4.977,0.376,9.689,0.473,14.388c0.111-0.002,0.222-0.004,0.333-0.006v-10.701l0.398-0.007v23.673
		c0.137-0.001,0.275-0.002,0.413-0.004v-16.947c0.092,0,0.184,0,0.276,0v33.006c0.928-7.094,0.413-14.213,0.637-21.484
		c0.647,8.211,0.095,16.282,0.543,24.332c0.355-8.405-0.038-16.82,0.466-25.218c0.709,5.979,0.136,11.995,0.737,17.98v-24.975
		c0.079,0,0.158,0,0.237,0v51.953c0.079,0.009,0.158,0.019,0.238,0.028c0.058-0.351,0.115-0.702,0.173-1.052
		c0.061,0.004,0.122,0.007,0.183,0.01v9.799c0.113-0.001,0.226-0.002,0.34-0.003c-0.328-8.219,0.386-16.418,0.429-24.632v34.499
		c0.089,0,0.178,0,0.267,0v-26.71c0.085,0,0.17,0,0.256,0v5.735c0.085-0.002,0.171-0.004,0.257-0.006V387.86
		c0.066,9.223,0.542,18.438,0.696,27.661c-0.083-8.825,0.472-17.636,0.635-26.455v21.475c0.447-0.483,0.317-0.89,0.326-1.263
		c0.154-6.652-0.004-13.302,0.21-19.96c0.357-11.144-0.059-22.3,0.292-33.453c0.134-4.277,0.132-8.557,0.105-12.839
		c0.161,8.432,0.523,16.861,0.497,25.299c0.181-3.399,0.46-6.777,0.977-10.149v4.588c0.458-0.334,0.219-0.706,0.382-0.972
		c0.112,0.2-0.095,0.54,0.411,0.659v-12.821c0.08,0,0.16,0.001,0.24,0.001v3.188c0.563-1.048,0.218-2.157,0.567-3.22v7.585
		c0.105,0,0.211,0,0.316,0v-4.002h0.361v3.007c0.116-0.001,0.232-0.001,0.348-0.002v-6.839c0.233,5.989,0.612,11.969,0.621,17.963
		c0.453-3.031,0.045-6.096,0.722-9.11v11.226c0.564-4.87-0.008-9.774,0.831-14.633v21.313c0.087-0.001,0.175-0.002,0.262-0.003
		V351.96c0.075,0,0.15,0,0.225,0v16.934c0.105,0.001,0.21,0.001,0.314,0.001v-18.92c1.034,6.528,0.417,13.106,1.047,19.646v-8.081
		c0.643,22.587,0.323,45.179,0.628,67.768c0.89-27.166,0.04-54.346,0.927-81.513v11.49c0.116,0.003,0.231,0.005,0.347,0.008
		c0.587-2.598,0.09-5.265,0.362-7.886c0,1.167,0,2.333,0,3.5c0,1.109,0,2.218,0,3.327c0.175-0.002,0.35-0.005,0.525-0.007
		c-0.371-7.213,0.077-14.386,0.795-21.105h0.06c-0.049,0.71-0.231,1.678,0.352,2.532c0.95-0.762,1.11-1.674,1.115-2.532h0.165
		c0.321,3.379,0.07,6.998,0.237,10.598c0.156,0.006,0.313,0.011,0.469,0.017v-6.901c0.125,0.001,0.25,0.003,0.375,0.004v11.196
		c0.113,0.004,0.225,0.009,0.338,0.013c-0.116-2.204,0.131-4.38,0.324-6.546c0.136,0.25-0.172,0.688,0.399,0.839
		c0.117-2.741,0.532-5.435,0.298-8.168c0.614,2.702,0.254,5.45,0.746,8.162v-5.298c0.218,4.187,0.595,8.366,0.444,12.557
		c-0.007,0.19-0.035,0.447-0.021,0.639c0.372-0.233,0.769-0.43,1.184-0.589v-4.305c0.087,0,0.174-0.001,0.261-0.001v4.209
		c0.113-0.039,0.228-0.074,0.344-0.107c0.145-3.439,0.653-6.878,0.527-10.433c0.19,0.497-0.08,0.971,0.494,1.362v-7.247h0.242
		v10.736c0.112,0.001,0.224,0.003,0.335,0.004c-0.097-2.791,0.099-5.564,0.329-8.224c0.117,1.205-0.139,2.542,0.282,3.853
		c0.284-2.117,0.009-4.273,0.608-6.368h0.062v2.952c0.084-0.005,0.169-0.01,0.253-0.016v-2.937l0,0
		c0.11,5.41,0.075,10.821,0.497,16.225c0.098,0.024,0.194,0.055,0.29,0.084v-7.932c0.094,2.665,0.161,5.33,0.216,7.995
		c0.413,0.142,0.808,0.333,1.181,0.567c0.033-4.331,0.052-8.66,0.033-12.988c0.085,1.415-0.106,2.863,0.702,4.194v-7.358
		c0.013,3.004,0.227,5.992,0.656,8.983c0.858-1.702,0.239-3.546,0.517-5.269c0.141,0.25-0.115,0.652,0.206,0.857
		c0.418-0.026,0.115-0.432,0.36-0.548c-0.033,0.575,0.422,0.507,0.71,0.413c0.442-0.146,0.225-0.592,0.258-0.908
		c0.039-0.367,0.009-0.741,0.009-1.111c0.065,0.001,0.131,0.002,0.196,0.003v4.446c0.492-0.775,0.234-1.611,0.322-2.402
		c0.225,8.054,0.306,16.111,0.341,24.189c0.195,1.609,0.332,3.23,0.425,4.857c-0.046-6.529-0.039-13.057,0.359-19.58
		c0.176-2.894,0.086-5.784,0.254-8.78c0.109,0.701,0.313,1.265,0.321,1.883c0.105,9.032,0.072,18.064,0.186,27.096
		c0.243,19.291,0.081,38.587,0.095,57.881c0.001,0.572-0.142,1.177,0.345,1.716v-9.116c0.087,0,0.174,0,0.262,0v7.307
		c0.089-0.002,0.178-0.004,0.267-0.006v-75.791c0.646,25.172,0.366,50.35,0.464,75.525c0.112,0,0.224,0,0.336-0.001v-52.963
		c0.083,0,0.166,0,0.248,0v14.083c0.09,0.002,0.181,0.005,0.271,0.007v-6.013c0.094,0.001,0.188,0.002,0.282,0.002v13.78
		c0.476-0.772,0.321-1.346,0.321-1.888c0.013-15.833-0.026-31.667,0.04-47.499c0.016-3.922-0.302-7.867,0.177-11.939h0.52v7.661
		c0.441-2.448,0.172-4.936,0.702-7.661h0.117v3.214c0.085-0.005,0.171-0.009,0.256-0.014v-3.199
		c0.145,3.974,0.142,7.948,0.149,11.922c0.001,0.385,0.05,1.103,0.096,1.104c0.756,0.025,0.413,0.588,0.414,0.858
		c0.024,21.024,0.026,42.049,0.038,63.073c0,0.5-0.143,1.029,0.172,1.533c0.642-0.491,0.5-1.172,0.503-1.794
		c0.088-20.28-0.195-40.561,0.284-60.838c0.012-0.502,0.001-1.004,0.001-1.506c0.065,0.001,0.13,0.002,0.195,0.003v13.267
		c0.088,0,0.176,0,0.263,0v-12.506c0.32,2.255-0.192,4.566,0.817,6.761v-12.536c0.555,22.848,0.369,45.7,0.421,68.551
		c0.125,0,0.25,0.001,0.375,0.001v-8.565c0.081,0,0.162,0,0.242,0.001v10.673c0.086-0.001,0.172-0.003,0.258-0.004v-36.659
		c0.098,0,0.196,0,0.294,0v20.021c0.091,0,0.183-0.001,0.274-0.001v-6.481c0.081,0,0.163,0.001,0.244,0.001v28.03
		c0.343-12.042,0.201-24.087,0.704-36.123c-0.015,0.429-0.015,0.859-0.015,1.289c0.003,10.685-0.009,21.371,0.026,32.056
		c0.005,1.524,0.234,3.048,0.359,4.572c0.094-0.006,0.188-0.013,0.282-0.019v-18.35c0.915,8.099,0.597,16.232,0.689,24.352
		c0.114-0.002,0.228-0.003,0.343-0.005v-26.98c0.089,0,0.178,0,0.267,0v22.579c0.096-0.001,0.192-0.001,0.288-0.002
		c0.213-28.817,0.427-57.634,0.64-86.452c0.047,0,0.094,0,0.141,0v60.496c0.318-0.46,0.318-0.925,0.318-1.389
		c0.001-4.11,0-8.219,0.005-12.329c0.001-0.561-0.039-1.137,0.068-1.682c0.518-2.643,0.88-5.289,0.746-7.997
		c-0.094-1.897-0.018-3.802-0.018-4.958c0.506,7.747,0.317,16.254,0.369,24.756c0.117,0,0.234,0,0.352,0v-4.202
		c0.276,0.526,0.022,1.138,0.407,1.806c0.205-0.635,0.35-1.088,0.509-1.58c0.146,0.59-0.103,1.17,0.426,2.004
		c0.379-6.755,0.551-13.183,0.783-19.615v47.008c0.088,0,0.175,0,0.263,0v-35.09c0.098,0,0.197,0,0.296,0v20.531l0.274-0.003
		v-14.514c0.078,0,0.157,0,0.235,0v10.676c0.363-4.33,0.216-8.671,0.735-13.069c-0.277,8.733,0.439,17.368,0.225,26.02
		c0.121-0.001,0.243-0.002,0.364-0.003v-22.616c-0.058,2.459,0.829,4.809,0.755,7.292c-0.168,5.619-0.054,11.246-0.038,16.87
		c0.001,0.435-0.177,0.925,0.335,1.456c0.173-1.889,0.265-3.668,0.27-5.393c0.014-4.797,0.223-9.588,0.393-14.376
		c0.096-2.712,0.179-5.428,0.419-8.142v11.362c0.447-0.566,0.311-1.014,0.32-1.43c0.163-8.252-0.041-16.504,0.206-24.762
		c0.308-10.279-0.035-20.573,0.339-30.857c0.019-0.521,0.002-1.043,0.002-1.564c0.12,0,0.241,0,0.361-0.001v21.316
		c0.144-0.001,0.287-0.002,0.431-0.003c0.021-7.892-0.116-15.788,0.382-23.672c-0.026,1.494-0.032,2.989-0.02,4.485
		c0.002,0.238-0.072,0.599,0.27,0.643c0.462,0.059,0.349-0.432,0.565-0.868c0,8.083-0.001,15.955,0.008,23.828
		c0,0.108,0.118,0.219,0.191,0.322c0.02,0.028,0.075,0.037,0.116,0.047c0.042,0.011,0.088,0.013,0.132,0.019
		c0.285-0.282,0.202-0.643,0.213-0.98c0.11-3.58,0.166-7.172,0.168-10.743c0.002-3.962,0.696-7.881,0.828-11.827v6.576
		c0.574-2.151-0.009-4.373,0.804-6.865v4.29l0.24,0.003c0.201-2.195,0.402-4.39,0.619-6.757c0.266,1.451-0.21,2.793,0.509,4.402
		c0.498-1.967,0.822-3.733,0.895-5.15c0.074,1.389,0.299,3.083,0.618,4.779c1.02-1.637,0.371-3.586,1.192-5.389
		c0.112,3.159,0.465,6.143,0.455,9.16c0.193-0.138,0.289-0.281,0.296-0.427c0.117-2.581-0.294-5.2,0.655-7.46
		c0.06,0.501,0.231,1.267,0.233,2.034c0.044,19.804-0.084,39.609,0.288,59.412c0.021,1.124-0.002,2.25,0.008,3.374
		c0.003,0.298-0.066,0.633,0.382,1.065v-19.416c0.079,0,0.159,0,0.238,0v7.202c0.394-0.383,0.326-0.698,0.334-0.991
		c0.118-4.23,0.117-8.462,0.195-12.691c0.204-11.018,0.049-22.043,0.344-33.063c0.014-0.519-0.051-1.044,0.012-1.556
		c0.228-1.867,0.495-3.729,0.797-5.962c0.175,1.436-0.109,2.513,0.445,3.547v-6.044c0.234,1.852-0.07,3.739,0.604,5.585
		c0.502-0.39,0.029-1.039,0.549-1.46c0.229,3.747,0.451,7.376,0.672,11.005c0.099-0.003,0.198-0.005,0.298-0.008v-16.681
		c0.085,0,0.169,0,0.254,0v8.894c0.586-1.19,0.154-2.48,0.783-3.679v4.679c0.124-0.004,0.248-0.009,0.372-0.013
		c-0.08-3.662,0.037-7.316,0.445-10.965v8.416c0.243-1.399,0.514-2.755,0.86-4.111c0.404-1.584,0.299-3.213,0.381-4.831h0.077v6.348
		c0.514-1.311,0.252-2.661,0.394-3.984c0.156,0.622-0.13,1.314,0.25,1.978c0.416-0.471,0.107-0.982,0.404-1.596
		c-0.466,4.397,0.816,8.495,0.445,12.686c0.119-0.003,0.237-0.005,0.356-0.008v-14.503c0.696,1.891,0.3,3.709,0.767,5.46
		c0.063-0.203,0.126-0.406,0.197-0.634c0.101,0.921-0.142,1.83,0.383,2.692v-8.44h0.832v7.62c0.082-0.001,0.163-0.002,0.245-0.003
		v-5.271c0.086,0,0.171,0,0.257-0.001v4.514c0.094-0.002,0.187-0.004,0.281-0.006v-6.854h0.253v13.621c0.088,0,0.175,0,0.263,0
		V339.54c0.04,2.238,1.031,4.332,0.979,6.581c-0.085,3.675-0.059,7.354-0.004,11.031c0.024,1.571,0.24,3.138,0.368,4.707
		c0.089-0.006,0.178-0.012,0.267-0.018v-14.325c0.253,0.925-0.181,1.971,0.695,2.749c0.084,0.074,0.123,0.196,0.184,0.295
		l0.421-0.002c0.197-2.98,0.02-5.981,0.266-8.965v9.151c0.558-1.046,0.215-2.154,0.564-3.217v4.476
		c0.105-0.004,0.211-0.008,0.316-0.011v-9.963c0.399,4.705,0.77,9.401,0.805,14.119c0.432-2.716,0.076-5.451,0.727-8.165
		c0.371-1.546,0.067-3.248,0.067-5.16c0.204,1.339-0.102,2.44,0.466,3.475v-4.19c0.939,1.374,0.667,2.883,0.672,4.35
		c0.015,4.888,0.003,9.777,0.014,14.665c0.001,0.427-0.119,0.896,0.365,1.516v-15.642c1.137,5.778,0.414,11.64,0.881,17.445
		c0.533-2.163,0.576-4.346,0.508-6.588c0.258,0.496-0.126,1.075,0.34,1.492c0.391-0.442,0.074-0.989,0.362-1.695
		c-0.259,1.305,0.21,2.294,0.199,3.338c-0.073,6.976-0.039,13.952,0.017,20.927c0.254-0.092,0.514-0.166,0.778-0.229v-14.413
		c0.117,0,0.235,0.001,0.352,0.001c-0.152,4.787-0.161,9.572-0.106,14.357c0.298-0.061,0.598-0.102,0.901-0.126v-39.457
		c0.095,0,0.19,0,0.285-0.001V357.2c0.088-0.001,0.176-0.002,0.263-0.003v-19.802c0.089,0,0.179,0,0.268,0v41.839
		c0.108,0,0.216,0,0.325,0.001c0.058-10.31-0.151-20.623,0.375-30.677c0.313,0.783,0.139,1.917,0.632,2.963v-9.4
		c0.786,1.878-0.004,3.951,1.044,5.776c0.045-0.285,0.089-0.569,0.135-0.854c0.16,1.219-0.166,2.475,0.407,3.675v-4.492
		c0.084,0,0.169-0.001,0.253-0.001v3.999c0.093-0.002,0.187-0.003,0.28-0.005v-10.175c0.082,0,0.163,0.001,0.245,0.001v6.539
		c1.198-2.273,0.808-4.698,0.901-7.102c0.075,0.158,0.124,0.401,0.209,0.414c0.476,0.071,0.16-0.437,0.53-0.641v7.303
		c0.081-0.002,0.163-0.004,0.244-0.006v-6.569c0.085,0,0.17-0.001,0.254-0.001v6.341l0.261-0.004
		c0.127-2.997,0.254-6.003,0.389-9.196h0.041c0,1.453-0.001,2.771,0,4.081c0.002,1.557-0.167,3.139,0.057,4.665
		c0.223,1.518,0.088,3.068,0.391,4.571c0.775-3.117,0.223-6.345,1.04-9.561c0.649,2.918,0.189,5.764,0.587,8.564
		c0.361-1.314,0.332-2.663,0.19-3.962c-0.143-1.309,0.604-2.378,0.774-3.602v7.306c0.085,0,0.171-0.001,0.257-0.001v-8.888
		c0.261,1.232-0.008,2.486,0.34,3.907c0.486-0.942,0.076-1.835,0.685-2.593v6.241c0.149,0.004,0.297,0.008,0.446,0.012
		c-0.493-3.646,0.38-7.117,1.377-10.602v14.261c0.112,0.001,0.224,0.002,0.336,0.003v-6.037c0.081,0.001,0.162,0.001,0.243,0.002
		v9.69l0.297,0.185c0.069-0.162,0.183-0.32,0.201-0.488c0.317-2.968,0.015-5.947,0.16-8.892c0.209,0.504-0.155,1.149,0.428,1.842
		v-4.708c0.048,1.354,0.273,2.672,0.782,3.98v-5.28c0.098,0,0.196,0.001,0.293,0.001v6.094c1.273-2.372,1.099-4.9,1.132-7.509
		c0.24,0.853-0.239,1.75,0.516,2.41c0.488-0.606,0.938-1.147,0.832-2.012c-0.114-0.928-0.026-1.88-0.026-2.645
		c0.5,1.22,0.674,2.634,0.63,4.102c-0.071,2.377-0.028,4.758-0.009,7.137c0.004,0.451-0.16,0.947,0.358,1.52v-13.738
		c0.244,0.797,0.022,1.624,0.519,2.407v-2.464h0.106c0.067,1.129,0.069,2.257,0.068,3.386c-0.001,3.835-0.001,3.835,0.676,4.563
		v-7.948h0.249v19.795c0.088-0.001,0.176-0.001,0.264-0.001v-11.215c0.047,0,0.094,0,0.141,0.001v10.989
		c0.232,0,0.463,0.001,0.695,0.001c0.041-4.955,0.003-9.912,0.024-14.899c0.54,0.384,0.13,1.049,0.722,1.572v-6.242h0.08
		c0.099,0.386,0.044,0.635,0.474,0.65v-0.65h0.227v2.203l0.282,0v-2.203h0.686c0.342,2.521,0.927,5.067,0.821,7.865
		c0.579-0.609,0.365-1.102,0.419-1.547c0.253-2.091-0.371-4.234,0.173-6.318h1.882c0.019,2.049,0.021,4.1,0.062,6.149
		c0.135,6.736,0.393,13.474,0.362,20.215c-0.012,2.682-0.005,5.364,0.004,8.046c0.001,0.414-0.085,0.861,0.391,1.196v-16.113
		c0.073,0,0.147,0,0.221,0v18.755c0.089,0.001,0.179,0.002,0.268,0.002v-9.691c0.186,2.021,0.72,4.644,0.726,7.307
		c0.007,3.278,0.164,6.557,0.261,9.835c0.006,0.202,0.076,0.403,0.116,0.604c0.788-3.994,0.512-8.017,0.623-12.024
		c0.121,9.983-0.146,19.969,0.322,29.948c0.026,0.557-0.178,1.186,0.598,1.923c0.131-11.822,0.677-23.445,0.807-35.037v40.602
		c0.092,0.002,0.184,0.003,0.276,0.005v-10.402c0.088,0.001,0.176,0.001,0.264,0.002v54.449c0.119,0.001,0.238,0.001,0.357,0.002
		c-0.299-23.103,0.521-46.194,0.687-69.294v61.776c0.108,0,0.216,0.001,0.323,0.001c-0.051-18.093,0.57-36.18,0.28-54.275
		c0.71,8.562,0.199,17.149,0.563,25.719c0.832-2.218,0.353-4.516,0.707-6.766v19.507c0.08,0,0.16,0,0.239,0
		c0.205-11.843,0.409-23.687,0.613-35.53c0.268,11.491-0.186,22.99,0.575,34.47c0.645-4.578,0.468-9.18,0.711-13.773v41.51
		c0.093,0,0.186,0,0.278-0.001v-36.772c0.092,0,0.184,0,0.275,0v3.074c0.111-0.006,0.221-0.011,0.332-0.017
		c-0.202-11.416,0.138-22.825,0.435-34.237v18.718c0.125,0,0.249,0,0.374,0c-0.302-16.993,0.482-33.973,0.196-50.966
		c0.14-0.001,0.28-0.002,0.421-0.003v25.773c0.115-0.001,0.231-0.001,0.346-0.002c0.059-3.129,0.533-6.239,0.544-9.379v10.166
		c0.793-7.448,0.456-14.917,0.954-22.128c0.151,0.465-0.26,1.259,0.335,1.927c-0.244-6.782,0.793-13.511,0.803-20.283v7.336
		c0.561-1.133,0.212-2.323,0.524-3.47v24.725c0.115,0.001,0.231,0.002,0.346,0.003c0.061-9.116-0.145-18.237,0.365-26.712
		c0.106,2.21,0.169,5.067,0.183,7.9c0.035,7.347,0.424,14.686,0.359,22.034c-0.044,4.974-0.012,9.95,0.004,14.925
		c0.001,0.433-0.179,0.924,0.354,1.449v-8.271c0.087,0,0.174,0.001,0.261,0.001v65.928c0.108,0.003,0.215,0.005,0.323,0.007
		c0-0.547,0-1.094,0-1.641c0.008-36.079,0.017-72.158,0.025-108.237c0-0.322,0.02-0.642,0.033-0.963h0.913v0.632
		c0.076,0.002,0.152,0.004,0.228,0.005c0.052-0.215,0.103-0.424,0.155-0.637h0.921c0.002,0.805,0.009,1.627,0.334,2.418v-2.418
		h0.451c0.13,0.251,0.279,0.498,0.466,0.738c0.17-0.246,0.212-0.496,0.216-0.738h0.088c0.122,1.995,0.245,4.028,0.369,6.07
		c0.075-0.001,0.151-0.001,0.226-0.001c0.32-2.02,0.642-4.044,0.963-6.068h0.61c0.037,0.303,0.113,0.615,0.294,0.938
		c0.03-0.365,0.054-0.665,0.076-0.938h0.129c0.684,11.104,0.488,22.221,0.522,33.334l0.355-0.002v-30.948
		c0.327,26.564-0.138,53.132,0.796,79.698v-6.3c0.098-0.001,0.197-0.001,0.296-0.002v4.182c0.093-0.006,0.187-0.013,0.281-0.019
		v-36.272c0.081,0,0.161,0,0.241,0v22.316c1.134-3.591,0.809-7.272,1.054-10.922v8.598l0.253-0.003v-11.227
		c0.331,1.047-0.043,2.149,0.475,3.531c0.075-0.556,0.134-0.762,0.126-0.965c-0.173-3.977,0.344-7.936,0.289-11.912
		c-0.046-3.33-0.089-6.665,0.042-9.991c0.143-3.609,0.609-7.207,0.716-10.817c0.13-4.385,0.031-8.775,0.031-13.164
		c0.013,0,0.027,0,0.04-0.001c0.046,0.802,0.091,1.604,0.137,2.407c0.097-0.008,0.195-0.015,0.292-0.023v-8.641
		c-0.033,1.218,0.409,2.388,0.41,3.596c0.031,24.952-0.091,49.904,0.274,74.855c0.063,4.325,0.01,8.652,0.017,12.978
		c0.001,0.416,0.042,0.833,0.065,1.249c0.295-0.368,0.332-0.704,0.337-1.041c0.165-11.843-0.254-23.689,0.238-35.533
		c0.122-2.942,0.282-5.885,0.507-8.829v18.981c0.408-9.773,0.133-19.553,0.825-29.319v35.234c0.5-10.38-0.02-20.771,0.615-31.145
		c0.098,4.696,0.259,9.387,0.96,14.055v-28.084c0.09,0,0.181,0,0.271-0.001v10.184c0.485-0.691,0.201-1.437,0.299-1.834
		c0.495,7.662,0.366,15.636,0.386,23.607c0.128-0.002,0.257-0.004,0.386-0.006V356.37c0.173,7.708,0.152,15.41,0.604,23.117
		c0.344,5.864,0.066,11.763,0.081,17.646c0.001,0.439-0.175,0.93,0.216,1.334c0.062-0.09,0.147-0.157,0.151-0.229
		c0.027-0.474,0.044-0.949,0.052-1.423c0.244-12.792-0.542-25.599,0.558-38.481c0.175,0.714-0.093,1.399,0.346,1.972
		c0.278-3.142-0.054-6.298,0.434-8.819c0.444,5.308,0.339,11.224,0.357,17.136c0.119-0.001,0.239-0.003,0.358-0.004v-12.011
		c0.089,0,0.178-0.001,0.266-0.001v6.314c0.085-0.002,0.17-0.004,0.255-0.006v-9.05c0.113,1.124,0.817,2.135,0.759,3.335
		c-0.161,3.367-0.044,6.746-0.055,10.12c-0.003,0.988,0.228,1.928,0.589,2.875c-0.129-10.984,0.338-21.956,0.398-33.074h1.137
		c0.105,1.686,0.22,3.371,0.345,5.053c0.206,2.768,0.064,5.524,0.196,8.281c0.021,0.44-0.173,0.931,0.372,1.473V346.8
		c0.09,0.001,0.179,0.001,0.268,0.002v42.823c0.084,0,0.168,0.001,0.252,0.001v-15.645c0.092,0,0.185,0,0.277-0.001v11.4
		c0.398-0.442,0.325-0.76,0.32-1.051c-0.121-7.261,0.24-14.516,0.252-21.774c0.009-5.401,0.331-10.793,0.366-16.194
		c0.015-2.36,0.132-4.739,0.191-7.11c0.01-0.397,0.041-0.788,0.272-1.118c0.224-0.32,0.373-0.66,0.494-1.01h0.411
		c0.045,0.339,0.138,0.68,0.351,1.028c0.21-0.339,0.283-0.679,0.315-1.028h0.465c0.762,7.463,0.76,14.677,0.835,21.886
		c0.424-0.488,0.301-1.015,0.302-1.52c0.009-6.789,0.008-13.577,0.008-20.366h0.987c0.107,3.082,0.187,6.164,0.17,9.251
		c-0.043,8.176-0.008,16.352-0.014,24.528c-0.001,0.84,0.072,1.651,0.65,2.727v-23.513l0.109-0.003
		c0.036,0.665,0.071,1.33,0.124,2.33c0.938-1.49,0.422-2.867,0.725-4.096c0.108,0.005,0.217,0.009,0.325,0.014v11.156
		c0.641-5.309-0.119-10.669,1.054-15.931c0.324,6.45,0.596,12.894,0.669,19.351c0.326-6.262,0.033-12.535,0.589-18.615
		c0.031,1.945-0.144,4.081,0.634,6.147v-5.099c0.315,0.964-0.046,1.668,0.42,2.377c0.781-1.555,0.306-3.139,0.482-4.529
		c0.137,2.606,0.279,5.33,0.421,8.053c0.616-1.558,0.012-3.229,0.619-4.579c0.671,7.169,0.167,14.54,0.534,21.891
		c0.368-0.536,0.242-1.102,0.255-1.653c0.226-9.493-0.495-19.004,0.727-28.481v3.99c0.108-0.002,0.216-0.004,0.324-0.006v-4.403
		c1.16,4.365,0.105,8.866,1.266,13.219v-12.36c0.312,0.963-0.062,1.678,0.387,2.319c0.443-0.64,0.077-1.351,0.443-1.979v4.987
		c0.237-2.435,0.232-4.865,0.329-7.093h0.453c0.25,5.656,0.118,11.718,0.356,17.781c0.338-4.5,0.019-9.026,0.768-13.504
		c0.068,0.361,0.136,0.722,0.251,1.33c0.759-1.972,0.469-3.772,0.735-5.528v6.024c0.087-0.001,0.174-0.001,0.261-0.002v-6.101h0.083
		c0.073,5.478,0.004,10.957,0.634,16.421c0.125-5.482,0.077-10.965,0.788-16.421h0.086v7.487c0.681-0.499,0.597-1.122,0.819-1.681
		v5.468c0.086-0.001,0.172-0.003,0.259-0.004v-10.681c0.085,0,0.17,0.001,0.255,0.001v14.332l0.261,0.005v-5.799
		c0.085,0.001,0.17,0.001,0.255,0.002v2.925c0.088,0.001,0.176,0.001,0.263,0.002v-6.803c0.076-0.002,0.152-0.004,0.227-0.006
		l0.576,6.292c0.119-0.003,0.238-0.006,0.357-0.009v-4.386c0.562,0.708,0.1,1.364,0.711,1.951v-3.105
		c0.142,0,0.284-0.001,0.426-0.001v38.442c0.135-0.001,0.269-0.002,0.403-0.003c0.21-14.02-0.213-28.047,0.276-42.252
		c0.251,0.716-0.085,1.348,0.507,2.063v-4.241h0.251v15.675c0.139,0.003,0.279,0.006,0.418,0.008
		c-0.393-5.254,0.196-10.461,0.65-15.683h0.021v24.717l0.269-0.002v-24.714h0.37v22.695c0.17,0.001,0.339,0.002,0.509,0.003
		c-0.216-5.743,0.153-11.469,0.403-17.202v8.636c0.114,0.002,0.228,0.005,0.342,0.007v-4.719c0.147,0.001,0.294,0.001,0.441,0.002
		v4.423c0.584-1.663,0.716-3.326,0.823-5.005v7.882c0.117-0.001,0.234-0.001,0.351-0.002c-0.188-4.791,0.381-9.557,0.314-14.347
		c0.088,0.984,0.373,1.94,0.691,2.901v-2.933c0.084,0,0.168,0.001,0.252,0.001v5.807c0.087-0.003,0.173-0.005,0.26-0.007v-8.141
		h0.012c0.013,7.826,0.378,15.642,0.594,23.466c0.418-0.762,0.148-1.59,0.458-2.366v4.972c0.119,0,0.238-0.001,0.357-0.001v-11.451
		c0.132,0.002,0.265,0.003,0.397,0.005v4.449c0.116-0.002,0.231-0.005,0.347-0.007c0.118-6.487-0.129-12.977,0.28-19.066h0.117
		c0.042,3.615-0.228,7.583,0.576,11.524c0.143-0.782,0.286-1.563,0.471-2.575c0,3.395,0,6.553,0,9.711
		c0,3.158-0.06,6.317,0.018,9.474c0.078,3.115-0.37,6.261,0.444,9.344c0.427-1.036,0.113-2.12,0.354-3.506
		c-0.139,4.058,0.367,7.755,0.273,11.475c-0.092,3.64-0.14,7.292,0.64,10.903V371.95c0.166,8.233-0.012,16.47,0.761,24.697V384.43
		c0.1,0.001,0.2,0.001,0.301,0.002v43.269c0.724-30.272,0.541-60.543,0.584-90.579h0.623c0.002,0.033,0.014,0.063,0.014,0.097
		c0.08,6.523-0.001,13.045,0.164,19.572c0.334,13.179-0.134,26.37,0.324,39.554c0.12,3.457,0.015,6.921,0.034,10.382
		c0.002,0.436-0.177,0.926,0.349,1.468v-24.618c-0.033,9.873,0.687,19.728,0.41,29.603c0.14-0.001,0.28-0.003,0.42-0.004V397.65
		c0.082,0,0.163,0,0.245,0v10.904c0.085-0.001,0.17-0.002,0.255-0.003V388.26h0.243v12.525c0.1-0.001,0.2-0.001,0.3-0.002v-60.225
		c0.146-0.002,0.291-0.005,0.437-0.007v11.447c0.12-0.002,0.239-0.005,0.359-0.007v-4.852c0.506,3.794,0.738,7.485,0.7,11.202
		c-0.071,6.878-0.036,13.757-0.002,20.635c0.006,1.226,0.216,2.45,0.332,3.675c0.094-0.004,0.188-0.008,0.282-0.013v-11.972
		c0.09,0,0.18,0.001,0.271,0.001v4.977c0.089-0.002,0.177-0.004,0.266-0.006v-22.245c0.196,3.777,0.787,8.604,0.733,13.471
		c-0.141,12.717-0.038,25.436-0.025,38.155c0.001,0.489-0.161,1.015,0.181,1.493c0.501-1.013,0.513-1.013,0.502-2.22
		c-0.066-7.163,0.049-14.324,0.359-21.326c0.041,8.068-0.138,16.298,0.667,24.512v-8.277c0.081,0,0.162,0.001,0.243,0.001v6.245
		c0.082-0.001,0.164-0.002,0.246-0.004v-8.603c1.625,6.257,0.719,12.674,1.556,18.987c-0.135-10.824,0.545-21.633,0.41-32.456
		c0.237,6.089-0.052,12.178,0.287,18.272c0.274,4.934,0.139,9.882,0.521,14.829c0.328,4.259,0.067,8.561,0.078,12.843
		c0.001,0.424-0.112,0.887,0.238,1.388c0.078-0.252,0.144-0.37,0.147-0.489c0.134-6.02,0.014-12.034,0.463-18.063
		c0.434-5.835,0.094-11.724,0.094-17.59c0.076,0,0.151,0,0.227,0v15.01c0.085,0,0.171,0,0.256,0v-5.728
		c-0.039,5.387,0.635,10.748,0.624,16.14c0.213-4.183,0.167-8.373,0.969-12.523v9.621c0.858-18.69,1.001-37.379,1.026-56.071v32.511
		c0.091,0.001,0.182,0.002,0.273,0.002v-17.663c0.14,6.155,0.389,12.298,0.734,18.438c0.111,0.001,0.221,0.003,0.332,0.004v-4.182
		c0.094,0.001,0.189,0.002,0.283,0.003v10.915c0.084,0.001,0.169,0.001,0.253,0.002v-6.302c0.095,0,0.19,0,0.286,0v10.425
		c0.091-0.002,0.183-0.005,0.274-0.007v-52.682c0.082,0,0.164,0,0.245,0v63.339c0.087,0,0.174,0,0.261,0v-58.435h0.252v53.012
		c0.083,0,0.167,0,0.25,0v-36.392c0.797,4.154,0.242,8.363,0.742,12.531c-0.11-15.068,0.623-30.123,0.602-45.187v6.02
		c1.024-1.664,0.228-3.58,1.087-5.383v12.887c0.874-5.896,0.473-11.831,0.705-17.743h0.206c0.018,0.819,0.024,1.637,0.041,2.455
		c0.031,1.481-0.233,2.999,0.607,4.409v-6.864h0.76c0.133,1.599,0.351,3.193,0.415,4.802c0.43-0.86,0.009-1.869,0.626-2.719
		c-0.11,13.125-0.001,26.203,0.475,39.279c0.411-6.509,0.592-13.024,0.484-19.545c0.291,4.518-0.296,9.069,0.614,13.564
		c0.236-5.732,0.008-11.47,0.624-17.191v10.983c0.094-0.001,0.189-0.001,0.283-0.002v-19.483c0.088,0,0.176,0,0.264,0.001v9.89
		c0.089,0.001,0.177,0.001,0.265,0.002v-4.72c0.271,1.14-0.035,2.309,0.377,3.664c0.415-1.273,0.098-2.371,0.276-3.488
		c0.125,1.03-0.114,2.027,0.274,2.989c0.145-3.201,0.925-6.331,0.771-9.567c-0.134-2.806-0.06-5.62-0.039-7.691
		c0.114,2.145,1.033,4.982,0.756,7.914c1.026-2.753,0.141-5.661,1.056-8.668v15.38c0.338-4.865,0.213-9.736,0.748-14.592v4.347
		c0.565-0.383,0.217-0.873,0.538-1.375v4.141c0.692-1.107,0.9-2.296,0.891-3.533c-0.002-0.26-0.081-0.558,0.023-0.768
		c0.113-0.228,0.207,0.462,0.404,0.101c0.115-0.211,0.097-0.504,0.099-0.76c0.007-0.986,0.005-1.971,0.004-2.957h0.566
		c0.003,0.079,0.01,0.158,0.012,0.236c0.176,7.473,0.073,14.947,0.238,22.424c0.252,11.372,0.068,22.753,0.08,34.131
		c0.001,0.472-0.139,0.986,0.278,1.568c0.068-0.316,0.131-0.477,0.133-0.638c0.082-5.944-0.201-11.898,0.534-17.826
		c0.101-0.813,0.014-1.648,0.014-2.473c0.067,0,0.134,0,0.201,0.001v34.009c0.083,0.001,0.166,0.002,0.249,0.003v-7.584
		c0.596,2.697,0.429,5.419,0.444,8.133c0.014,2.655,0.003,5.311,0.003,7.966c0.131-0.002,0.261-0.005,0.392-0.007v-13.963
		c0.084,0,0.169,0,0.253,0.001v14.246c0.087-0.001,0.173-0.003,0.26-0.004v-44.37c0.187,4.677-0.008,9.364,0.812,14.015v-10.859
		c0.091,13.748,0.491,27.491,0.415,41.24c0.116,0,0.232-0.001,0.348-0.001v-35.334c0.083,0,0.166,0,0.248,0v10.97
		c0.091,0,0.182,0.001,0.273,0.001v-13.271l0.291,0.001v37.365c0.258-0.322,0.308-0.655,0.312-0.988
		c0.215-20.183-0.436-40.372,0.51-60.552c0.161-3.438,0.185-6.887,0.377-10.466c0.058,20.987-0.15,41.838,0.556,62.683
		c0.225-20.259-0.034-40.522,0.613-60.779v7.37c0.094,0,0.187-0.001,0.281-0.001v-7.058c0.259,1.228-0.019,2.479,0.345,3.899
		c0.427-0.884,0.145-1.647,0.277-2.236c0.836,22.811-0.178,45.755,0.843,68.68c0.312-9.521-0.067-19.054,0.66-28.569v21.549
		c0.934-7.181,0.391-14.389,0.805-21.581v24.653c0.671-8.306,0.723-16.621,0.907-24.888c0.212,1.279-0.297,2.702,0.708,4.293v-5.163
		c0.802,0.275,0.643,0.841,0.66,1.344c0.092,2.716,0.181,5.432,0.282,8.148c0.006,0.172-0.061,0.432,0.368,0.482v-18.206
		c0.172,6.924,0.005,13.854,0.81,20.761v-20.473c0.081,0,0.162,0,0.243,0v31.404c0.118,0.001,0.237,0.003,0.355,0.004
		c-0.279-9.267,0.347-18.509,0.71-27.762v7.534c0.584-9.533,0.67-19.065,0.78-28.6v13.3l0.267-0.002v-14.089
		c0.089,0,0.178,0,0.267-0.001v11.761c0.087-0.001,0.174-0.002,0.261-0.003v-11.3c0.632,0.736,0.711,1.474,0.707,2.267
		c-0.02,4.239-0.008,8.479-0.006,12.718c0,0.58,0.003,0.58,0.51,1.205V362.51c0.436,2.714,0.467,5.446,0.461,8.14
		c-0.016,7.302,0.459,14.583,0.61,21.875c0.081,3.892,0.013,7.786,0.02,11.68c0.001,0.412,0.056,0.823,0.086,1.235
		c0.253-13.055,0.933-26.073,1.049-39.096v37.034c0.132,0.001,0.264,0.001,0.396,0.002c-0.221-15.327,0.128-30.648,0.299-45.971
		c0.056,4.656,0.324,9.309,0.451,13.955c0.307,11.283,0.109,22.579,0.103,33.87c-0.001,1.137,0.232,2.226,0.485,3.319
		c0.818-22.941,0.248-45.886,0.699-68.82c0.433,3.187-0.035,6.377,0.542,9.606c0.437,2.447,0.403,5.06,0.401,7.607
		c-0.013,11.507-0.005,23.014,0.007,34.521c0.001,0.507-0.151,1.059,0.244,1.659c0.82-9.056,0.789-17.982,0.902-26.91v4.755
		c0.095-0.001,0.19-0.002,0.284-0.003v-4.702c0.244,18.241,0.595,36.478,0.397,54.72c0.175,0,0.349,0,0.524,0v-23.931
		c0.456,0.45,0.064,1.025,0.669,1.531v-25.644c0.21,2.147,0.335,4.305,0.358,6.441c0.065,6.221,0.261,12.44,0.315,18.66
		c0.076,8.695,0.023,17.39,0.034,26.086c0.001,0.425-0.117,0.889,0.371,1.57c0.148-5.848,0.169-11.372,0.711-16.909
		c0.57-5.827,0.127-11.749,0.127-17.629c0.069,0,0.138,0,0.207,0v5.482c0.082-0.002,0.164-0.004,0.246-0.006V381.17
		c0.686,2.763,0.31,5.503,0.807,8.196v-11.233c-0.089,3.883,0.331,7.751,0.484,11.621c0.211,5.337-0.94,10.746,0.951,16.024
		c0.436,1.217,0.064,2.711,0.064,4.224c0.553-0.391,0.419-0.762,0.419-1.075c0.012-4.283,0.01-8.565,0.011-12.848
		c0.001-4.326-0.271-8.673,0.083-12.972c0.324-3.937,0.247-7.882,0.564-11.824c0.556-6.922,0.157-13.918,0.158-20.883
		c0.001-3.192,0-6.384,0-9.575c0.063,0,0.126,0,0.189,0v19.258c0.088,0,0.176,0,0.264,0.001v-16.151c0.087,0,0.173,0,0.26,0.001
		v6.817c0.087,0,0.174,0,0.261,0v-7.628c0.443,7.199,0.278,14.413,0.947,21.604c0.799-4.149,0.269-8.343,0.641-12.507v6.564
		c0.082-1.319,0.963-2.435,1.096-3.642c0.475-4.321,0.272-8.695,0.973-12.761c0.097,0.457,0.247,1.161,0.397,1.866
		c0.077-0.01,0.154-0.02,0.231-0.03v-6.141c0.083,0.01,0.166,0.019,0.249,0.029v14.161c0.088-0.001,0.175-0.002,0.263-0.003v-13.575
		c0.085,0,0.171,0,0.256,0v13.337c0.355-2.617,0.784-5.216,0.785-7.849v2.666c0.087,0.001,0.175,0.001,0.262,0.002v-6.072
		c0.113,7.051,0.256,14.094,0.779,21.388c0.509-0.694,0.383-1.187,0.37-1.644c-0.169-5.835,0.268-11.66,0.273-17.491
		c0.001-0.605,0.13-1.163,0.653-1.691v10.691c0.838-3.992,0.581-8.029,0.954-11.26c0.287,11.704,0.436,24.173,0.606,36.646
		c-0.295-11.186,0.673-22.341,0.756-32.298c0.112,3.143,0.38,6.845,0.327,10.57l0.465,0.002v-13.359
		c0.002,0.035,0.003,0.07,0.005,0.105v-4.952c0.07-0.055,0.132-0.115,0.191-0.177v6.663c0.026,0,0.052,0,0.078,0.001v-1.888
		c0.188,0.671,0.135,1.349,0.14,2.024c0.004,0.661,0.001,1.322,0.001,1.983c0.041-0.001,0.082-0.001,0.123-0.002v-3.475
		c0.026,0,0.053,0,0.08,0v3.546c0.027,0,0.054-0.001,0.082-0.001v-11.044c0.059,1.164-0.003,2.331,0.256,3.488v-2.703
		c0.029,3.422,0.154,6.842,0.131,10.264c0.037,0,0.073,0,0.11,0v-8.794c0.026,0,0.052,0,0.078,0v2.73c0.029,0,0.057,0,0.086,0
		v-3.303l0.092,0v9.3c0.081-0.08,0.097-0.163,0.098-0.246c0.056-4.138-0.058-8.277,0.061-12.416c0.07-0.07,0.148-0.137,0.224-0.205
		c0.002,3.523,0.019,7.035,0.169,10.546c0.051-3.586,0.027-7.173,0.081-10.759c0.151-0.12,0.313-0.237,0.485-0.35
		c0.059,4.513-0.078,9.041,0.177,13.567c0.098-2.37-0.021-4.742,0.208-7.111v5.363c0.294-1.787,0.123-3.581,0.253-5.371v6.136
		c0.211-2.067,0.228-4.137,0.286-6.195c0.067,0.318-0.094,0.672,0.223,1.068v-1.285c0.252,0.068,0.203,0.209,0.208,0.335
		c0.029,0.676,0.057,1.352,0.089,2.028c0.002,0.043-0.019,0.107,0.116,0.12v-4.531c0.054,1.723,0.002,3.448,0.255,5.167v-5.096
		c0.026,0,0.051,0,0.077,0v7.816c0.037,0,0.074,0.001,0.112,0.001c-0.088-2.307,0.109-4.607,0.223-6.91v1.875
		c0.184-2.373,0.211-4.745,0.246-7.119v3.31l0.084-0.001v-3.507c0.028,0,0.056,0,0.084,0v2.927c0.027,0,0.055-0.001,0.082-0.001
		v-2.813c0.199,0.183,0.224,0.367,0.223,0.564c-0.006,1.055-0.003,2.11-0.002,3.166c0,0.144,0.001,0.144,0.16,0.3v-3.965
		c0.137,0.675,0.147,1.356,0.145,2.026c-0.005,1.818,0.144,3.63,0.192,5.445c0.025,0.969,0.004,1.938,0.006,2.907
		c0,0.102,0.018,0.205,0.027,0.307c0.08-3.249,0.294-6.49,0.33-9.731v9.218c0.041,0,0.083,0,0.125,0.001
		c-0.07-3.815,0.04-7.628,0.094-11.442c0.018,1.159,0.102,2.317,0.142,3.473c0.097,2.808,0.034,5.62,0.033,8.43
		c0,0.283,0.073,0.554,0.152,0.826c0.197-4.376,0.14-8.753,0.166-13.128c0.113-0.03,0.231-0.057,0.347-0.086
		c0,0.123,0.004,0.247,0.004,0.37c-0.004,2.864-0.002,5.728,0.002,8.592c0,0.126-0.048,0.264,0.077,0.413
		c0.258-2.254,0.248-4.476,0.284-6.698v1.184c0.03,0,0.06,0,0.089-0.001v-1.17c0.077,4.54,0.187,9.079,0.125,13.62
		c0.055,0,0.11,0,0.165,0v-5.956c0.144,0.112,0.02,0.255,0.211,0.381V335.1c0.066,0.534,0.106,1.071,0.113,1.603
		c0.02,1.548,0.082,3.096,0.099,4.644c0.024,2.164,0.007,4.328,0.011,6.493c0,0.106-0.037,0.221,0.117,0.391
		c0.047-1.455,0.053-2.831,0.224-4.209c0.179-1.45,0.04-2.924,0.04-4.388c0.022,0,0.043,0,0.065,0v1.365
		c0.026-0.001,0.052-0.001,0.077-0.001v-3.85c0.216,0.688,0.098,1.37,0.254,2.04v-2.796c-0.028,0.966,0.104,1.929,0.152,2.892
		c0.067,1.329-0.296,2.675,0.299,3.988c0.137,0.303,0.02,0.675,0.02,1.051c0.174-0.097,0.132-0.19,0.132-0.268
		c0.004-1.066,0.003-2.132,0.003-3.198c0-1.077-0.085-2.159,0.026-3.229c0.102-0.98,0.078-1.962,0.177-2.943
		c0.153-1.501,0.08-3.016,0.058-4.527c0.017-0.003,0.034-0.006,0.051-0.009v1.749c0.028,0,0.055,0,0.083,0v-1.763
		c0.093-0.016,0.183-0.033,0.277-0.048c0.033,0.99,0.069,1.979,0.185,2.967c0.245-1.004,0.098-2.019,0.197-3.027
		c0.002,0,0.003-0.001,0.005-0.001v1.549c0.026-0.328,0.303-0.606,0.345-0.906c0.033-0.235,0.052-0.471,0.07-0.707
		c0.169-0.025,0.341-0.05,0.512-0.074v0.065c0.028,0,0.055,0,0.083-0.001v-0.076c0.027-0.004,0.054-0.008,0.081-0.011v0.028
		c0.002-0.01,0.003-0.019,0.005-0.029c0.135-0.019,0.268-0.038,0.404-0.056c0.036,0.859,0.086,1.725,0.166,2.607
		c0.16-0.173,0.121-0.295,0.116-0.409c-0.027-0.746-0.004-1.492,0.025-2.237c0.088-0.011,0.178-0.022,0.267-0.033v0.156
		c0.014-0.053,0.018-0.107,0.03-0.16c0.113-0.014,0.225-0.028,0.338-0.042c0.049,2.129,0.084,4.323,0.122,6.52
		c-0.075-2.244,0.103-4.475,0.19-6.557c0.041-0.005,0.083-0.009,0.123-0.013c0.018,0.381,0.034,0.769,0.027,1.163l0.146,0v-1.182
		c0.01-0.001,0.021-0.002,0.031-0.003c0.004,0.183,0.003,0.365,0.011,0.548c0.079,1.885,0.021,3.772,0.025,5.658
		c0,0.078-0.044,0.163,0.088,0.26c0.021-0.052,0.041-0.079,0.042-0.106c0.026-0.985-0.063-1.972,0.168-2.955
		c0.032-0.135,0.004-0.273,0.004-0.41c0.021,0,0.042,0,0.063,0v5.638c0.026,0,0.052,0,0.078,0v-1.257
		c0.188,0.447,0.135,0.898,0.14,1.348c0.004,0.44,0.001,0.88,0.001,1.321c0.041,0,0.082-0.001,0.123-0.001v-2.315
		c0.026,0,0.053,0,0.08,0v2.362c0.027,0,0.054,0,0.082-0.001v-7.355c0.059,0.775-0.003,1.552,0.256,2.323v-1.8
		c0.029,2.279,0.155,4.557,0.131,6.837c0.036,0,0.073,0,0.11,0v-5.857c0.026,0,0.052,0,0.078,0v1.819c0.029,0,0.057,0,0.086,0v-2.2
		l0.092,0v6.194c0.081-0.053,0.097-0.109,0.098-0.164c0.068-3.346-0.138-6.693,0.16-10.038c0.001-0.013,0.001-0.025,0.002-0.038
		c0.039-0.003,0.079-0.007,0.119-0.01c0.001,2.91-0.014,5.808,0.172,8.704c0.062-2.91,0.019-5.82,0.136-8.731
		c0.126-0.01,0.251-0.022,0.378-0.032c0.156,3.457-0.066,6.929,0.228,10.4c0.098-1.578-0.021-3.159,0.208-4.736v3.572
		c0.294-1.19,0.123-2.385,0.253-3.578v4.087c0.211-1.377,0.228-2.755,0.286-4.126c0.067,0.212-0.094,0.448,0.223,0.712v-0.856
		c0.252,0.046,0.203,0.139,0.208,0.223c0.029,0.45,0.057,0.9,0.089,1.351c0.002,0.029-0.019,0.072,0.116,0.08v-3.018
		c0.054,1.148,0.002,2.297,0.255,3.442v-3.394c0.026,0,0.051,0,0.077,0v5.206c0.037,0,0.074,0,0.112,0.001
		c-0.088-1.536,0.109-3.068,0.223-4.602v1.249c0.184-1.58,0.211-3.16,0.246-4.741v2.205l0.084,0V330.5c0.028,0,0.056,0,0.084,0v1.95
		c0.027,0,0.055,0,0.082-0.001v-1.873c0.199,0.122,0.224,0.244,0.223,0.376c-0.006,0.703-0.003,1.406-0.002,2.108
		c0,0.096,0.001,0.096,0.16,0.2v-2.641c0.137,0.45,0.147,0.903,0.145,1.349c-0.005,1.211,0.144,2.418,0.192,3.626
		c0.025,0.645,0.004,1.291,0.006,1.936c0,0.068,0.018,0.136,0.027,0.205c0.08-2.164,0.294-4.322,0.33-6.481v6.139
		c0.042,0,0.083,0,0.125,0c-0.07-2.541,0.04-5.081,0.094-7.621c0.018,0.772,0.102,1.543,0.142,2.313
		c0.097,1.87,0.034,3.743,0.032,5.615c0,0.188,0.073,0.369,0.153,0.55c0.207-3.055,0.138-6.11,0.174-9.164
		c0.11-0.005,0.221-0.008,0.332-0.013c0.013,0.207,0.011,0.416,0.011,0.622c-0.004,1.908-0.001,3.815,0.002,5.723
		c0,0.084-0.048,0.176,0.077,0.275c0.258-1.501,0.248-2.981,0.284-4.461v0.788c0.03,0,0.06,0,0.089,0v-0.779
		c0.077,3.024,0.187,6.047,0.125,9.071c0.055,0,0.11,0,0.165,0v-3.967c0.144,0.075,0.02,0.17,0.211,0.254v-4.251
		c0.066,0.356,0.106,0.714,0.113,1.068c0.02,1.031,0.082,2.062,0.099,3.093c0.024,1.441,0.007,2.883,0.01,4.324
		c0,0.07-0.037,0.147,0.117,0.26c0.047-0.969,0.053-1.885,0.224-2.803c0.179-0.966,0.04-1.948,0.04-2.923c0.022,0,0.044,0,0.065,0
		v0.909c0.026,0,0.052-0.001,0.077-0.001v-2.564c0.216,0.458,0.098,0.912,0.254,1.359v-1.862c-0.028,0.644,0.104,1.285,0.152,1.926
		c0.067,0.885-0.296,1.782,0.299,2.656c0.137,0.202,0.02,0.449,0.02,0.7c0.174-0.065,0.132-0.126,0.132-0.178
		c0.004-0.71,0.003-1.42,0.003-2.13c0-0.717-0.085-1.438,0.026-2.15c0.028-0.178,0.035-0.355,0.049-0.533
		c0,0.12-0.002,0.239-0.002,0.359c0,0.078-0.04,0.163,0.08,0.26c0.019-0.052,0.038-0.079,0.038-0.106
		c0.023-0.985-0.058-1.972,0.154-2.955c0.029-0.135,0.004-0.273,0.004-0.41c0.019,0,0.039,0,0.058,0v5.638
		c0.024,0,0.048,0,0.071,0.001v-1.257c0.172,0.447,0.124,0.898,0.128,1.348c0.004,0.44,0.001,0.88,0.001,1.321
		c0.038,0,0.075-0.001,0.113-0.001v-2.315c0.024,0,0.048,0,0.073,0v2.362c0.025,0,0.05,0,0.075-0.001v-6.796
		c0.01-0.03,0.012-0.06,0.021-0.089c0.021,0.619,0.024,1.238,0.213,1.854v-1.8c0.026,2.279,0.141,4.557,0.119,6.837
		c0.033,0,0.067,0,0.1,0v-5.857c0.024,0,0.048,0,0.071,0v1.819c0.026,0,0.052,0,0.079,0v-2.2l0.084,0v6.194
		c0.074-0.053,0.089-0.109,0.09-0.164c0.053-2.86-0.06-5.72,0.072-8.579c0.062-0.001,0.124-0.002,0.187-0.003
		c0.001,2.405,0.016,4.803,0.157,7.2c0.046-2.401,0.032-4.802,0.082-7.203c0.146-0.002,0.292-0.003,0.438-0.005
		c0.005,0.064,0.005,0.127,0.01,0.191c0.037,2.879-0.075,5.767,0.148,8.653c0.09-1.578-0.019-3.159,0.19-4.736v3.572
		c0.269-1.19,0.113-2.385,0.231-3.578v4.087c0.193-1.377,0.208-2.755,0.261-4.126c0.061,0.212-0.086,0.448,0.204,0.712v-0.657
		c0,0.007,0,0.013,0.001,0.02c-0.002-0.042,0.001-0.084-0.001-0.126v-0.093c0.231,0.046,0.185,0.139,0.19,0.223
		c0.026,0.45,0.052,0.901,0.081,1.351c0.002,0.029-0.018,0.072,0.106,0.08v-3.018c0.049,1.148,0.001,2.297,0.233,3.442v-3.394
		c0.023,0,0.047,0,0.07,0v5.206c0.034,0,0.068,0,0.102,0.001c-0.08-1.536,0.1-3.068,0.204-4.602v1.249
		c0.158-1.489,0.188-2.977,0.217-4.466c0.002,0,0.005,0,0.007,0v1.93l0.077,0v-1.929c0.026,0,0.051,0,0.077,0v1.543
		c0.025,0,0.05,0,0.075-0.001v-1.543c0.065,0,0.131,0,0.195,0c0.001,0.015,0.008,0.03,0.008,0.045
		c-0.006,0.703-0.002,1.406-0.002,2.108c0,0.096,0.001,0.096,0.147,0.2v-2.353c0.016,0,0.032,0,0.049,0
		c0.063,0.355,0.085,0.71,0.084,1.061c-0.005,1.211,0.132,2.417,0.176,3.626c0.023,0.645,0.004,1.291,0.006,1.936
		c0,0.068,0.016,0.136,0.025,0.205c0.073-2.164,0.268-4.322,0.302-6.481v6.139c0.038,0,0.076,0,0.114,0
		c-0.054-2.161,0.01-4.322,0.06-6.483c0.027,0,0.055,0,0.082,0c0.026,0.392,0.055,0.783,0.073,1.175
		c0.088,1.87,0.031,3.743,0.03,5.615c0,0.188,0.067,0.369,0.139,0.55c0.151-2.445,0.139-4.891,0.145-7.336
		c0.11,0.001,0.219,0.002,0.328,0.003c-0.001,1.5-0.001,3,0.002,4.501c0,0.084-0.044,0.176,0.07,0.275
		c0.236-1.501,0.227-2.981,0.259-4.461v0.788c0.027,0,0.055,0,0.082,0v-0.779c0.07,3.024,0.171,6.047,0.114,9.071
		c0.05,0,0.101,0,0.151,0v-3.967c0.131,0.075,0.018,0.17,0.192,0.254v-4.251c0.06,0.356,0.096,0.714,0.103,1.068
		c0.019,1.031,0.075,2.062,0.091,3.093c0.022,1.441,0.007,2.883,0.01,4.324c0,0.07-0.034,0.147,0.107,0.26
		c0.043-0.969,0.049-1.885,0.204-2.803c0.164-0.966,0.037-1.948,0.037-2.922c0.02,0,0.04,0,0.059,0v0.909
		c0.024,0,0.047-0.001,0.071-0.001v-2.564c0.197,0.458,0.089,0.912,0.232,1.359v-1.862c-0.026,0.644,0.095,1.285,0.139,1.926
		c0.061,0.885-0.27,1.781,0.274,2.656c0.125,0.202,0.018,0.449,0.018,0.7c0.159-0.065,0.12-0.126,0.121-0.178
		c0.003-0.71,0.003-1.42,0.003-2.13c0-0.717-0.078-1.438,0.024-2.15c0.093-0.653,0.071-1.307,0.162-1.96
		c0.052-0.37,0.069-0.742,0.077-1.114c0.174,0.004,0.347,0.007,0.519,0.011c0.001,0.005,0.001,0.011,0.002,0.016
		c0.002-0.005,0.002-0.011,0.003-0.016c0.843,0.019,1.669,0.042,2.475,0.067c0.017,0.683,0.033,1.364,0.05,2.051
		c-0.031-0.688-0.007-1.372,0.03-2.049c1.357,0.043,2.652,0.094,3.865,0.148c-0.005,0.525-0.014,1.05-0.013,1.576
		c0,0.053-0.044,0.111,0.088,0.176c0.021-0.035,0.041-0.053,0.042-0.072c0.022-0.557-0.026-1.115,0.088-1.671
		c0.049,0.002,0.099,0.004,0.147,0.007v3.205c0.026,0,0.052,0,0.078,0v-0.852c0.188,0.303,0.135,0.609,0.14,0.914
		c0.005,0.298,0.001,0.597,0.001,0.895c0.041,0,0.082-0.001,0.124-0.001v-1.569c0.026,0,0.053,0,0.08,0v1.6c0.027,0,0.055,0,0.082,0
		v-4.168c0.019,0.001,0.038,0.002,0.058,0.003c0.025,0.252,0.074,0.505,0.198,0.756v-0.746c0.006,0,0.012,0.001,0.017,0.001
		c0.041,1.386,0.135,2.772,0.113,4.158c0.037,0,0.073,0,0.11,0v-3.969c0.026,0,0.052,0,0.078,0v1.232c0.029,0,0.057,0,0.086,0
		v-1.402c0.031,0.002,0.061,0.003,0.092,0.005v4.104c0.081-0.036,0.097-0.074,0.098-0.111c0.04-1.329-0.006-2.659,0.003-3.988
		c0.1,0.005,0.201,0.01,0.3,0.015c0.019,1.013,0.055,2.025,0.152,3.037c0.031-1.009,0.033-2.018,0.043-3.027
		c0.186,0.01,0.364,0.019,0.544,0.029c-0.007,1.368-0.016,2.738,0.155,4.107c0.098-1.07-0.021-2.141,0.208-3.209v2.421
		c0.294-0.807,0.123-1.616,0.253-2.424v2.77c0.211-0.933,0.228-1.867,0.286-2.796c0.067,0.144-0.094,0.304,0.223,0.482v-0.58
		c0.252,0.031,0.203,0.095,0.208,0.151c0.029,0.305,0.057,0.61,0.089,0.915c0.002,0.019-0.019,0.049,0.116,0.054v-1.804
		c0.004,0,0.008,0,0.011,0.001c0.033,0.697,0.016,1.395,0.244,2.091v-2.076c0.026,0.001,0.051,0.003,0.077,0.005v3.3
		c0.037,0,0.074,0,0.112,0c-0.088-1.041,0.109-2.079,0.223-3.119v0.846c0.057-0.334,0.079-0.667,0.111-1.001
		c0.353,0.022,0.686,0.043,1,0.063c0.039,0.363,0.082,0.725,0.103,1.088c0.025,0.437,0.004,0.875,0.006,1.312
		c0,0.046,0.018,0.092,0.027,0.139c0.046-0.84,0.133-1.678,0.208-2.516c0.04,0.003,0.082,0.005,0.122,0.008v2.277
		c0.042,0,0.083,0,0.125,0c-0.031-0.756-0.024-1.513-0.005-2.269c0.095,0.006,0.188,0.013,0.278,0.019
		c0.007,0.819-0.004,1.639-0.005,2.458c0,0.128,0.073,0.25,0.153,0.373c0.094-0.937,0.122-1.874,0.137-2.812
		c0.132,0.009,0.262,0.018,0.382,0.027c0.001,0.289,0,0.577,0,0.866c0,0.057-0.047,0.119,0.077,0.186
		c0.088-0.346,0.138-0.69,0.176-1.034c0.096,0.007,0.187,0.014,0.274,0.02c0.052,1.381,0.09,2.762,0.048,4.144
		c0.055,0,0.11,0,0.165,0v-2.688c0.143,0.05,0.02,0.115,0.211,0.172v-1.596c0.048,0.004,0.097,0.007,0.14,0.011
		c0.027,0.508,0.059,1.016,0.071,1.524c0.024,0.977,0.007,1.954,0.011,2.93c0,0.048-0.037,0.1,0.117,0.176
		c0.047-0.657,0.053-1.278,0.224-1.899c0.179-0.655,0.04-1.32,0.04-1.98c0.022,0,0.043,0,0.065,0v0.616c0.004,0,0.008,0,0.011,0
		v6.028c0.03-1.821,0.053-3.641,0.16-5.458v2.578c0.178-0.227,0.068-0.518,0.169-0.815v2.456c0.218-0.657,0.283-1.362,0.281-2.095
		c-0.001-0.154-0.026-0.331,0.007-0.456c0.035-0.135,0.065,0.274,0.127,0.06c0.036-0.125,0.03-0.299,0.031-0.451
		c0.001-0.272,0.001-0.544,0.001-0.816c0.129,0.136,0.017,0.301,0.017,0.469c0.174-0.044,0.132-0.086,0.132-0.121
		c0.004-0.481,0.003-0.962,0.004-1.443c0-0.379-0.049-0.76-0.019-1.139c0.02,0.481,0.042,0.96,0.048,1.437
		c0.055,4.431,0.023,8.864,0.075,13.298c0.079,6.744,0.021,13.493,0.025,20.24c0,0.28-0.044,0.585,0.088,0.93
		c0.022-0.187,0.041-0.283,0.042-0.378c0.026-3.525-0.063-7.056,0.168-10.571c0.032-0.482,0.004-0.977,0.004-1.467
		c0.021,0,0.042,0,0.063,0v20.168c0.026,0.001,0.052,0.001,0.078,0.002v-4.497c0.188,1.599,0.135,3.213,0.14,4.823
		c0.005,1.575,0.001,3.149,0.001,4.724c0.041-0.001,0.082-0.003,0.124-0.004v-8.281c0.026,0,0.053,0,0.08,0v8.448
		c0.027-0.001,0.054-0.002,0.082-0.002v-26.312c0.059,2.773-0.003,5.553,0.256,8.311v-6.44c0.029,8.153,0.154,16.303,0.131,24.456
		c0.037,0,0.073,0,0.11-0.001v-20.954c0.026,0,0.052,0,0.078,0v6.505c0.029,0,0.057,0.001,0.086,0.001v-7.87l0.091,0.001v22.158
		c0.081-0.191,0.097-0.388,0.098-0.586c0.068-11.969-0.137-23.941,0.16-35.909c0.051-2.039,0.058-4.084,0.119-6.206
		c0.018,12.445-0.047,24.81,0.175,37.172c0.071-12.014-0.011-24.03,0.193-36.043v4.37c0.03,0,0.059-0.001,0.088-0.001v-4.185
		c0.082,0.729-0.006,1.47,0.109,2.312c0.134-0.524,0.046-0.977,0.087-1.326c0.263,13.527-0.056,27.133,0.266,40.728
		c0.098-5.646-0.021-11.299,0.208-16.942v12.779c0.294-4.258,0.123-8.533,0.253-12.798v14.62c0.211-4.926,0.228-9.857,0.286-14.759
		c0.067,0.758-0.094,1.602,0.223,2.546v-3.062c0.252,0.163,0.202,0.499,0.208,0.797c0.029,1.611,0.057,3.221,0.089,4.832
		c0.002,0.102-0.019,0.256,0.116,0.286v-10.797c0.054,4.106,0.002,8.216,0.255,12.312v-12.141c0.026,0,0.051,0,0.077,0v18.623
		c0.037,0.001,0.075,0.002,0.112,0.002c-0.088-5.495,0.109-10.976,0.223-16.463v4.468c0.184-5.653,0.211-11.306,0.246-16.961v7.887
		l0.084-0.001v-8.355c0.028,0,0.056,0,0.084,0v6.975c0.027-0.001,0.055-0.001,0.082-0.002V346.1
		c0.199,0.436,0.224,0.874,0.222,1.345c-0.006,2.514-0.003,5.028-0.002,7.542c0,0.344,0.001,0.344,0.16,0.715v-9.446
		c0.137,1.609,0.147,3.23,0.145,4.827c-0.005,4.331,0.144,8.648,0.192,12.972c0.025,2.308,0.004,4.618,0.006,6.926
		c0,0.244,0.018,0.488,0.027,0.732c0.08-7.742,0.294-15.462,0.33-23.185v21.962c0.041,0,0.083,0.001,0.125,0.001
		c-0.07-9.089,0.04-18.175,0.094-27.262c0.018,2.761,0.102,5.521,0.142,8.275c0.097,6.691,0.034,13.39,0.033,20.086
		c0,0.674,0.073,1.32,0.153,1.968c0.257-13.604,0.078-27.211,0.22-40.811c0.136,1.89-0.011,3.782,0.171,5.697
		c0.138,1.451,0.127,3,0.126,4.511c-0.004,6.824-0.002,13.648,0.002,20.472c0,0.301-0.048,0.628,0.077,0.984
		c0.258-5.37,0.248-10.664,0.284-15.958v2.82c0.03-0.001,0.06-0.001,0.089-0.001v-2.788c0.077,10.817,0.187,21.632,0.125,32.45
		c0.055,0,0.11,0,0.165,0v-14.191c0.143,0.267,0.02,0.608,0.211,0.908v-15.208c0.066,1.273,0.106,2.553,0.113,3.82
		c0.02,3.689,0.082,7.377,0.099,11.066c0.024,5.156,0.007,10.313,0.011,15.469c0,0.252-0.037,0.527,0.117,0.931
		c0.047-3.468,0.053-6.744,0.224-10.027c0.179-3.456,0.04-6.967,0.04-10.454c0.022,0,0.043,0,0.065,0v3.251
		c0.026-0.001,0.052-0.002,0.077-0.004v-9.173c0.216,1.638,0.097,3.263,0.254,4.86v-6.661c-0.028,2.303,0.104,4.596,0.152,6.891
		c0.066,3.165-0.296,6.373,0.299,9.502c0.137,0.722,0.02,1.608,0.02,2.505c0.174-0.232,0.132-0.452,0.132-0.638
		c0.004-2.54,0.003-5.079,0.003-7.619c0-2.565-0.085-5.144,0.026-7.693c0.102-2.335,0.078-4.674,0.177-7.012
		c0.175-4.105,0.049-8.253,0.05-12.384c0-1.893,0-3.786,0-5.678c0.02,0,0.04,0,0.06,0v11.42c0.028,0,0.055,0,0.083,0v-9.578
		c0.027,0,0.054,0,0.082,0v4.042c0.028,0,0.055,0,0.082,0v-4.523c0.139,4.269,0.088,8.547,0.298,12.812
		c0.251-2.46,0.085-4.948,0.202-7.417v3.893c0.026-0.782,0.303-1.444,0.345-2.16c0.15-2.563,0.086-5.156,0.306-7.567
		c0.031,0.271,0.078,0.689,0.125,1.106c0.024-0.006,0.048-0.012,0.073-0.018v-3.748c0.026,0,0.052,0,0.078,0v8.521
		c0.028-0.001,0.055-0.001,0.083-0.002v-8.05c0.027,0,0.054,0,0.081,0v7.909c0.112-1.552,0.246-3.093,0.247-4.655v1.581
		c0.027,0,0.055,0.001,0.082,0.001v-3.601c0.035,4.181,0.081,8.358,0.245,12.683c0.16-0.411,0.121-0.704,0.116-0.975
		c-0.053-3.46,0.084-6.915,0.086-10.373c0-0.359,0.041-0.69,0.205-1.003v6.34c0.264-2.367,0.183-4.761,0.3-6.677
		c0.09,6.94,0.137,14.335,0.191,21.732c-0.093-6.634,0.212-13.248,0.238-19.153c0.035,1.864,0.12,4.059,0.103,6.268l0.146,0.001
		v-7.88L463.985,323.253z M339.236,258.243c-0.257,0.324-0.611,0.496-1.036,0.397c-0.95-0.222-1.906-0.428-2.844-0.695
		c-2.925-0.831-5.887-1.509-8.852-2.18c-0.61-0.138-1.463-0.143-1.638-0.803c-0.186-0.701,0.693-0.901,1.132-1.282
		c1.899-1.65,4.061-2.944,6.076-4.438c0.617-0.457,0.983-0.347,1.425,0.263c1.518,2.1,3.09,4.162,4.641,6.239
		c-0.016,0.012-0.032,0.023-0.047,0.035c0.331,0.517,0.668,1.03,0.992,1.551C339.258,257.611,339.504,257.906,339.236,258.243z
		 M362.863,217.573c2.964,3.701,4.663,7.89,4.829,12.655c0.035,1.014-0.028,2.016-1.089,2.615c-0.503,0.284-0.901,0.257-1.245-0.189
		c-0.613-0.793-1.245-1.574-1.801-2.406c-1.022-1.529-1.995-3.092-2.988-4.64c-0.004,0.003-0.009,0.006-0.013,0.008
		c-0.978-1.525-2.008-3.021-2.918-4.586c-0.648-1.115-1.635-1.341-2.757-1.343c-2.016-0.004-3.708,0.852-5.294,2.014
		c-2.881,2.109-15.261,9.404-15.907,9.005c-0.634-0.391-0.755-2.061-0.7-2.734c0.443-5.486,2.603-10.035,7.249-13.209
		c0.319-0.218,0.638-0.438,0.958-0.655c-0.09,0.953-0.183,1.86,0.803,2.38c1.214,0.641,0.949-1.267,1.995-1.72
		c0.349,1.243,1.094,2.214,1.91,3.141c0.415,0.472,0.784,0.951,1.478,0.493c0.693-0.458,0.677-1.041,0.326-1.725
		c-0.324-0.631-0.917-1.144-0.909-2.112c1.701,1.24,2.437-0.075,3.279-1.127c0.466-0.582,0.912-1.181,1.364-1.772
		c0.747,0.065,1.496,0.159,2.246,0.278C357.504,212.553,360.477,214.595,362.863,217.573z M364.506,200.738l0.022-0.035l0.07-0.024
		C364.568,200.699,364.536,200.716,364.506,200.738z M415.557,313.161c-0.036-1.551-0.054-3.112,0.495-4.591
		c0.642-1.73,0.495-3.479,0.163-5.217c-0.297-1.556,0.074-3.084,0.042-4.627c-0.029-1.445-0.182-2.809-1.037-4.027
		c-0.154-0.219-0.252-0.518-0.27-0.787c-0.185-2.716-1.177-5.291-1.331-8.023c-0.135-2.387-0.195-4.788-0.578-7.157
		c-0.453-2.803-0.23-5.609-0.102-8.42c0.043-0.942-0.061-1.91-0.24-2.839c-0.534-2.773-0.867-5.552-0.766-8.387
		c0.12-3.349,0.131-6.705,0.13-10.052c0-2.981,0.437-5.972-0.123-8.971c-0.218-1.17,0.237-2.45,0.232-3.679
		c-0.021-4.907,0.082-9.806,0.675-14.683c0.146-1.203,0.147-2.433,0.591-3.857c0.491,2.051,0.727,3.89,0.942,5.726
		c0.664,5.68,1.188,11.376,0.87,17.1c-0.303,5.466,0.035,10.926,0.067,16.386c0.024,4.054,0.709,8.079,1.989,11.96
		c0.222,0.673,0.132,1.309,0.119,1.975c-0.088,4.73,0.108,9.449,0.515,14.164c0.216,2.494,0.065,5.005,0.254,7.508
		c0.254,3.375,0.354,6.762,0.537,10.143c0.044,0.814,0.174,1.574,0.893,2.169c0.57,0.472,0.399,1.19,0.096,1.763
		c-0.647,1.224-0.592,2.397-0.06,3.652c0.336,0.792,0.491,1.611,0.166,2.549c-0.249,0.72-0.05,1.596-0.05,2.461
		c-0.148-0.02-0.373,3.253-0.528,5.864h-3.691v-7.641C415.535,313.474,415.56,313.299,415.557,313.161z"/>
	<path d="M464.526,443.997v0.042l0.002,0.021C464.527,444.039,464.527,444.018,464.526,443.997z"/>
</g>
</svg>
